TITLE ""
FILE "Disc5Track16.mp3" MP3
  TRACK 01 AUDIO
    TITLE "Disc5Track16_01"
    INDEX 01 00:00:00
  TRACK 02 AUDIO
    TITLE "Disc5Track16_02"
    INDEX 01 00:01:06
  TRACK 03 AUDIO
    TITLE "Disc5Track16_03"
    INDEX 01 00:02:33
  TRACK 04 AUDIO
    TITLE "Disc5Track16_04"
    INDEX 01 00:03:50
  TRACK 05 AUDIO
    TITLE "Disc5Track16_05"
    INDEX 01 00:07:50
  TRACK 06 AUDIO
    TITLE "Disc5Track16_06"
    INDEX 01 00:08:08
  TRACK 07 AUDIO
    TITLE "Disc5Track16_07"
    INDEX 01 00:09:35
  TRACK 08 AUDIO
    TITLE "Disc5Track16_08"
    INDEX 01 00:10:44
  TRACK 09 AUDIO
    TITLE "Disc5Track16_09"
    INDEX 01 00:11:71
  TRACK 10 AUDIO
    TITLE "Disc5Track16_10"
    INDEX 01 00:12:35
  TRACK 11 AUDIO
    TITLE "Disc5Track16_11"
    INDEX 01 00:13:52
  TRACK 12 AUDIO
    TITLE "Disc5Track16_12"
    INDEX 01 00:14:73
  TRACK 13 AUDIO
    TITLE "Disc5Track16_13"
    INDEX 01 00:16:17
  TRACK 14 AUDIO
    TITLE "Disc5Track16_14"
    INDEX 01 00:18:38
  TRACK 15 AUDIO
    TITLE "Disc5Track16_15"
    INDEX 01 00:18:71
  TRACK 16 AUDIO
    TITLE "Disc5Track16_16"
    INDEX 01 00:20:05
  TRACK 17 AUDIO
    TITLE "Disc5Track16_17"
    INDEX 01 00:21:54
  TRACK 18 AUDIO
    TITLE "Disc5Track16_18"
    INDEX 01 00:22:61
  TRACK 19 AUDIO
    TITLE "Disc5Track16_19"
    INDEX 01 00:26:19
  TRACK 20 AUDIO
    TITLE "Disc5Track16_20"
    INDEX 01 00:26:53
  TRACK 21 AUDIO
    TITLE "Disc5Track16_21"
    INDEX 01 00:28:13
  TRACK 22 AUDIO
    TITLE "Disc5Track16_22"
    INDEX 01 00:31:32
  TRACK 23 AUDIO
    TITLE "Disc5Track16_23"
    INDEX 01 00:32:61
  TRACK 24 AUDIO
    TITLE "Disc5Track16_24"
    INDEX 01 00:36:51
  TRACK 25 AUDIO
    TITLE "Disc5Track16_25"
    INDEX 01 00:37:08
  TRACK 26 AUDIO
    TITLE "Disc5Track16_26"
    INDEX 01 00:38:38
  TRACK 27 AUDIO
    TITLE "Disc5Track16_27"
    INDEX 01 00:40:29
  TRACK 28 AUDIO
    TITLE "Disc5Track16_28"
    INDEX 01 00:41:56
  TRACK 29 AUDIO
    TITLE "Disc5Track16_29"
    INDEX 01 00:47:14
  TRACK 30 AUDIO
    TITLE "Disc5Track16_30"
    INDEX 01 00:47:49
  TRACK 31 AUDIO
    TITLE "Disc5Track16_31"
    INDEX 01 00:49:03
  TRACK 32 AUDIO
    TITLE "Disc5Track16_32"
    INDEX 01 00:50:12
  TRACK 33 AUDIO
    TITLE "Disc5Track16_33"
    INDEX 01 00:51:41
  TRACK 34 AUDIO
    TITLE "Disc5Track16_34"
    INDEX 01 00:53:57
  TRACK 35 AUDIO
    TITLE "Disc5Track16_35"
    INDEX 01 00:54:14
  TRACK 36 AUDIO
    TITLE "Disc5Track16_36"
    INDEX 01 00:55:31
  TRACK 37 AUDIO
    TITLE "Disc5Track16_37"
    INDEX 01 00:56:36
  TRACK 38 AUDIO
    TITLE "Disc5Track16_38"
    INDEX 01 00:57:49
  TRACK 39 AUDIO
    TITLE "Disc5Track16_39"
    INDEX 01 00:59:70
  TRACK 40 AUDIO
    TITLE "Disc5Track16_40"
    INDEX 01 01:00:30
  TRACK 41 AUDIO
    TITLE "Disc5Track16_41"
    INDEX 01 01:01:57
  TRACK 42 AUDIO
    TITLE "Disc5Track16_42"
    INDEX 01 01:04:48
  TRACK 43 AUDIO
    TITLE "Disc5Track16_43"
    INDEX 01 01:05:72
  TRACK 44 AUDIO
    TITLE "Disc5Track16_44"
    INDEX 01 01:10:01
